<svg version="1.2" xmlns="http://www.w3.org/2000/svg" viewBox="0 0 682 682" width="682" height="682"><style>.a{fill:#fefae0}</style><path class="a" d="m301 127q0.5 2.5 1 5c2 0.7 4 1.3 6 2q0.2 1.5 0.4 3.1 0.3 1.9 0.6 3.9c0.1 1.5 0.1 1.5 0.1 3.1 1.2 3.8 3.2 5 6.3 7.4 2.3 2.2 2.5 4.4 2.6 7.5q0.5-0.5 1-1c3.4-0.2 3.4-0.2 7 0 2 2 2 2 2.4 4.8-0.2 5.9-2.5 11.6-4.4 17.2q1.6-0.1 3.3-0.2c3.7 0.2 3.7 0.2 5.5 1.9q0.6 1.1 1.2 2.3 0.6 1 1.2 2.1c1.2 4.3 1 8.5 0.8 12.9-3.5 0.5-3.5 0.5-7 1 0 2.6 0 5.3 0 8-2.4 1.2-3.9 1.1-6.6 1.1q-1.2-0.1-2.5-0.1-0.9 0-1.9 0 1.7 0.1 3.4 0.1 2.2 0.1 4.4 0.2 1.1 0 2.2 0.1c5.5 0.3 5.5 0.3 7.9 2 2.5 3.8 3.5 7.1 3.1 11.6q-0.5 0.5-1 1-0.1 3.3-0.1 6.6c0.1 1.8 0.1 1.8 0.1 3.6q0 1.4 0 2.8 1.4 0.5 2.9 0.9c3.1 1.1 3.1 1.1 4.1 2.1q0.3 2.9 0.3 5.8 0.1 1.6 0.1 3.2c-0.5 3.7-1.6 4.7-4.4 7-2.3 1.3-2.3 1.3-4 2q0 3 0 6 1.2 0 2.4 0 1.5 0 3-0.1 1.5 0 3.1 0c2.5 0.1 2.5 0.1 3.5 1.1 0.6 4.6 0.6 8-1.8 11.9-2.2 2.1-2.2 2.1-5.2 4.1q1 0.5 2 1c1.3 2.5 1.3 2.5 2.7 5.7q0.7 1.5 1.4 3.1c1 3.6 0.9 5.7-0.1 9.2-1.6 1.9-1.6 1.9-3 3q1 0.7 2 1.5c2.5 3.1 2.5 4.8 2.3 8.6-0.5 2.9-0.9 4.1-3.3 5.9-3 0.6-5.9 0.9-9 1q-0.2 1.9-0.4 3.9c-0.5 4-0.5 4-1.6 5.1q1 0.1 2 0.3c6 1 10.6 2.3 15 6.7q0.1 2.8 0.1 5.6-0.1 1.5-0.1 3c0 1.2 0 1.2 0 2.4-8.3 4.4-8.3 4.4-13 5q1 0.1 1.9 0.2 1.3 0.1 2.5 0.2 1.3 0.2 2.5 0.3c2.1 0.3 2.1 0.3 3.1 1.3 0.4 3.1 0.5 6 0 9-2.6 3.1-4.1 3.9-8.1 4.4q-1.4 0.3-2.9 0.6-0.7 1.2-1.5 2.5c-1.5 2.5-1.5 2.5-4.7 3.3q-1.4 0.1-2.8 0.2 0 1.2 0 2.3c0 1.5 0 1.5 0.1 3.1q0 1.5 0 3c-0.1 2.6-0.1 2.6-1.1 4.6-5.6-0.4-8-2.3-12-6q0 1 0 2c-2.3 0.3-4.6 0.7-7 1q0 7.7-0.1 15.4 0 2.6 0 5.3 0 3.7 0 7.5 0 1.2 0 2.4c0 6.9 0.4 12.4 4.1 18.4q0 2 0 4 1.7-0.1 3.5-0.2c9.8-0.3 18.9-0.4 27.5 5.2 2.1 2.5 3.1 4.9 4 8q0.5 1.5 1 3c2.8 0.9 5.5 1.6 8.4 2.3 11.6 3 20.1 8 29.5 15.5 1.5 1.1 1.5 1.1 3.1 2.2q0.8 0.6 1.7 1.3c7.5 5 15.6 4.4 24.3 4.3q2.5 0 5.1 0 7 0 14-0.1 7.4 0 14.9 0 12.6 0 25.2-0.1 17.3 0 34.7-0.1 73.6-0.1 147.1-1.3-0.9-1-1.8-2-1.2-1.3-2.5-2.7-1.1-1.3-2.4-2.6c-4.5-5.2-8.7-10.6-12.9-16-5.5-7.1-11.1-14-17-20.9-6.4-7.5-6.4-7.5-6.4-9.8q-1 0-2 0-2-2.6-4-5.3c-2.5-3.3-5.2-6.4-7.9-9.6-4-4.7-8-9.4-11.9-14.3-2.9-3.7-6-7.4-9-11q-7.3-8.8-14.2-17.8c-3.1-3.9-6.3-7.8-9.6-11.6-4.3-5-8.3-10.1-12.1-15.4-3.2-4.2-6.5-8.1-9.9-12.1-2.9-3.4-5.6-6.9-8.4-10.4-5.9-7.4-11.9-14.6-18-21.7q-5.3-6.3-10.3-12.8c-1.5-1.8-3-3.4-4.7-5q-1.9 1.7-3.8 3.3-1.1 0.9-2.2 1.9c-2 1.7-2 1.7-3.6 3.5-1.4 1.3-1.4 1.3-3.4 1.3q0 1 0 2c-2.5 2.5-5.3 4.7-8 7q-1.3 1.2-2.6 2.4c-3.4 2.3-5.2 2.7-9.4 2.6-3.3-1.4-6.3-2.9-9.4-4.7-2.4-1.5-2.4-1.5-4.6-1.3q-1.7 2.3-3.2 4.8c-4 5.8-7 8.5-14.1 9.8-7.6-1.3-13.7-6.2-19-11.6-1.7-1.2-1.7-1.2-4.1-0.9-8 2.7-15.1 8.9-21.9 13.9-14.3 10.5-14.3 10.5-21.7 10-2-1-2-1-3-3-0.2-4-0.2-6.5 2.4-9.7 2.1-1.9 4.3-3.6 6.6-5.3q1.6-1.2 3.2-2.3 5.4-3.9 10.8-7.7 0.9-0.6 1.8-1.3 5.6-3.9 11.2-7.7 1.5-1.1 3.1-2.2c3.5-2.2 5.5-2.6 9.5-2.4 4.9 1.2 8.6 4.5 12.4 7.6q1 0.8 2 1.6 2 1.7 4 3.4c3.8-1.5 5.9-3.9 8.6-7 5.8-6.8 5.8-6.8 11.1-7.4 4.3 0 6.9 1.7 10.3 4.3 2.8 1.5 3.9 1.7 7 1.1 2.6-1.9 4.8-4.2 7.1-6.5 17.4-16.9 17.4-16.9 25.3-18 3.6 0.5 3.6 0.5 6.1 2.8q1.1 1.4 2.2 3c3.1 4.1 3.1 4.1 6.6 7.9 1.7 1.8 1.7 1.8 1.7 3.8q1 0 2 0c1.3 1.5 1.3 1.5 2.9 3.5q0.8 1.1 1.7 2.3 0.8 1.1 1.7 2.3 1.7 2.3 3.4 4.6 0.9 1.1 1.7 2.2c1.5 1.9 3 3.7 4.5 5.5 2.1 2.6 2.1 2.6 2.1 4.6q1 0 2 0c1.4 1.6 1.4 1.6 2.9 3.7 1.8 2.5 3.5 4.8 5.5 7.2 1.6 2.1 1.6 2.1 1.6 4.1q0.9 0.4 1.8 0.8c2.4 1.3 3.5 2.5 5 4.7q0.8 1 1.6 2.1 0.8 1.1 1.7 2.2c4.1 5.5 8.2 10.9 12.7 16.1q0.7 0.8 1.4 1.6c0.6 0.8 0.6 0.8 1.3 1.5q3.6 4.3 7.2 8.7 0.9 1.2 1.9 2.4c1.4 1.9 1.4 1.9 1.4 3.9q1 0 2 0c1.9 2.1 1.9 2.1 4.1 4.9q1.1 1.3 2.2 2.7c1.7 2.4 1.7 2.4 1.7 4.4q1 0 2 0c1.3 1.4 1.3 1.4 2.9 3.5 0.9 1.2 0.9 1.2 1.9 2.5q2.5 3.4 5 6.8c5 6.9 10 13.3 16.1 19.1 3.8 3.8 6.9 7.9 10.1 12.1q2.6 3.3 5.2 6.6 0.7 0.9 1.4 1.8c6.5 8.3 13.2 16.5 19.9 24.6 4.4 5.4 8.7 10.9 13 16.5 2.2 2.9 4.5 5.6 7.1 8.2q1.2 1.1 2.4 2.3 0 1 0 2 1 0 2 0c3.5 4.3 3.3 7.7 3 13-3.1 1.8-5.3 2.2-8.8 2.2q-1.5 0.1-2.9 0.1-1.6 0-3.3-0.1c-1.7 0.1-1.7 0.1-3.4 0.1q-4.8 0-9.5 0-5.2-0.1-10.4 0-9.1 0-18.1 0-13.5-0.1-27-0.1-22.7 0.1-45.4 0-22.5 0-44.9 0-1.4 0-2.8 0-5.7 0-11.4 0-53.2 0-106.4 0-47.3 0-94.6 0-3 0-6.1 0c-1.5 0-1.5 0-3 0q-7.5 0-15.1 0c-1.5 0-1.5 0-3 0q-39.5 0-79 0c-1.4 0-1.4 0-2.8 0q-5.7 0-11.3 0-19.7 0-39.4 0-25.3 0-50.6 0-13.5-0.1-26.9-0.1-8.9 0-17.9 0-5.1 0-10.2 0-5.5 0-10.9 0-1.6 0-3.3 0-1.4 0-2.9 0c-1.3 0-1.3 0-2.6 0-2.1-0.1-2.1-0.1-5.1-1.1-2-32.1-2-32.1 2-38 3.5-3 7.1-5.6 11-8q0.8-0.5 1.6-1.1c6.7-4.1 13.7-3.4 21.3-3.2q1.9 0 3.9 0c6.5 0.1 12.9 0.3 19.3 1.3 2.2 0.2 2.2 0.2 4.7-1.6q2.3-2.6 4.6-5.2c2.6-2.2 2.6-2.2 6.2-2.1 3.4 0.9 3.4 0.9 6.4 2.9 1.9 0.5 1.9 0.5 4 0.7q1.1 0.1 2.3 0.3 1.2 0.1 2.5 0.3c9.7 1.4 18.6 3.7 27.3 8.4 3 1.3 4.3 1.6 7.4 1.1q1.1-0.1 2.2-0.3c2.8-0.6 5.5-1.5 8.3-2.5 0.9-9.5 1.1-19 1.1-28.6q0-1.6 0-3.4 0-1.6 0-3.3c0-1.4 0-1.4 0-2.9-0.1-3-0.4-5.8-1.1-8.8q-2.5-1-5-2c-2.1-4.2-2.3-8.5-2.7-13.1q-0.1-1-0.3-1.9-1-0.5-2-1 0-1 0-2-1.3-0.1-2.7-0.1c-1.8-0.1-1.8-0.1-3.6-0.2q-1.8-0.1-3.6-0.2c-3.1-0.5-3.1-0.5-5-1.6-1.7-3-1.4-5.7-1.3-9.1 0.1-1.9 0.1-1.9 0.1-3.8 0-1.5 0-1.5 0.1-3-9.9-0.7-9.9-0.7-18.5 3.2-1.8 2.7-1.8 2.7-3.2 5.5-1.3 2.3-1.3 2.3-4.3 4.3-6.8 1.1-12.4-0.9-18.6-3.4-7.6-2.9-14-4.3-22.1-4.4-3.3-0.2-5.6-0.9-8.6-2.2-2.3-0.9-2.3-0.9-4.7-1-2.9 1.4-5.1 3.1-7.6 5.1-5.6 4.4-11.4 5.6-18.4 4.9-2.7-1.1-2.7-1.1-5-3-1.3-6.9-1.1-15.2 2.7-21.4 3.2-4 6.7-6.9 11.4-9 3.2-1.8 4.3-3.7 6.3-6.6 5.3-6.6 12.3-10.7 20.6-11.6 2.2-0.2 2.2-0.2 4-2.4-1.2-0.6-1.2-0.6-2.5-1.1-2.5-1.9-2.5-1.9-3.1-4.9 0.6-3 0.6-3 2.3-4.6 2.8-1.7 4.8-1.9 8-2.1q1.5-0.1 3-0.2c1.2 0 1.2 0 2.3-0.1q0.4-1.1 0.8-2.2c1.2-2.7 2.4-5.4 3.6-8 1.7-3.6 3-7 4-10.7 1.1-3.4 1.6-4.1 4.4-6.5 5.8-2.9 11.3-4.1 17.6-5.1 2.2-0.4 4.4-0.9 6.6-1.5q-0.5-1-1-2c-0.5-7.4-0.5-7.4 1.3-9.5 5.6-4.8 13.2-4.9 20.2-4.6 7.3 0.1 14.4-0.1 21.7-0.6 4.1-0.3 7.8-0.1 11.9 0.6 3.7 0.5 3.7 0.5 6.9-1.4 1.8-1.8 1.8-1.8 3.2-3.8 2.8-2.6 5.1-2.6 8.8-2.7 3 1.4 3 1.4 5.8 3.6q1.6 1.1 3.2 2.2 1.5 1.1 3 2.2c6.8 4.9 11.6 6.5 20 6.8 6.8 0.4 10.3 3.5 15 8.2q2.3 1.3 4.6 2.5c3.7 2 6.2 3.7 8.4 7.5 0.2 2.8 0.2 2.8 0 5 1.3 0.3 1.3 0.3 2.6 0.7 4.1 1.6 6.3 3.3 9.4 6.3q0 1 0 2 1 0 2 0 0.5-2.5 1-5c3-1 5.9-2 9-3q-0.6-0.7-1.3-1.4c-3.1-4.7-5.7-9.3-5.7-15 1.2-3 2.2-4 5-5.6q1.5-0.5 3-1-1-1.5-2-3c0.2-6.3 0.2-6.3 3.1-8.9q0.9-0.6 1.9-1.1-1.4-0.5-2.9-0.9c-3.1-1.1-3.1-1.1-4.1-2.1-0.8-8.3 2-16.3 7-23 3.5-2.7 7.7-2.3 12-2 3 0.5 3 0.5 5 1-0.3-3-0.3-3-2-6-2.2-0.8-4.4-1.1-6.7-1.5-3.5-0.7-5.1-1.8-7.3-4.5-0.8-2.5-1.2-5-1.6-7.7-0.4-2.4-0.4-2.4-1.4-5.3q-0.1-3.5 0-7c3.1-1.5 6.3-1.1 9.6-1.1q1.1 0 2.2 0.1 2.6 0 5.2 0c-3-1-5.9-2-9-3-0.9-4.7-1.2-7.7 1-12 3-0.3 5.9-0.7 9-1q-1.2-1.1-2.4-2.3c-3.1-3.2-3.7-5.4-3.8-9.7q0-1 0-2.1c0.2-1.9 0.2-1.9 2.2-4.9 1.9-0.3 1.9-0.3 4.1-0.2q1.9 0.1 3.9 0.2-1.5-1-3-2c0-2.1 0-2.1 1-5 1.7-1.4 1.7-1.4 3.9-2.8 4.2-2.8 5.1-5.3 6.4-10.1 3-9.4 11.6-7.6 19.7-7.1zm-27 28c1.6 3.2 4.8 3.7 8 5q-0.5-1.5-1-3c-3.5-1.2-3.5-1.2-7-2zm11 65c4 1 4 1 4 1zm-16.1 23q-1.1 0.6-2.2 1.1c-0.9 0.5-0.9 0.5-1.7 0.9q0 0.5 0 1c4.5-0.5 4.5-0.5 9-1q0.5-2 1-4c-2.5 0-3.9 0.8-6.1 2zm14.1 18q0 1 0 2c-5.9 0.5-5.9 0.5-12 1q0 1 0 2c3.6 1.2 6.2 1.4 10 1 2.9-2.4 2.9-2.4 5-5q-1.5-0.5-3-1zm48 24q3 0 6 0 0.5-1 1-2c-3.1 0-4.4 0.5-7 2zm-72 3q0 0.5 0 1c3 0 5.9 0 9 0q0-0.5 0-1c-3 0-5.9 0-9 0zm-12 12q1 1 2 2c2.1-0.3 2.1-0.3 4-1-3-0.5-3-0.5-6-1zm-178 19q-0.2 1-0.3 1.9-0.4 1.1-0.7 2.1-1.5 0.5-3 1c1.9 0.6 1.9 0.6 4 1 1.3-1.1 1.3-1.1 1.1-3.6q-0.1-1.2-0.1-2.4-0.5 0-1 0zm146 2q0 1 0 2c3.7-0.5 5.6-1.1 8-4-3.2 0-5.1 0.7-8 2zm51-1q0 0.5 0 1c2.3 0 4.6 0 7 0q0-0.5 0-1c-2.3 0-4.6 0-7 0zm-113 2q0 1.5 0 3 2.5-0.5 5-1-0.5-1-1-2-2 0-4 0zm-27 2q0 1.5 0 3 3.5 0.6 7 1 0.5-0.5 1-1c5.5-0.2 5.5-0.2 8 1q-0.5-2-1-4c-5.6-1.6-9.5-2.6-15 0zm110 8q0 0.5 0 1 3 0 6 0 0-0.5 0-1-3 0-6 0zm-77 7c-2.2 4.1-3.4 7.3-3 12q-1.5 0.5-3 1 0 0.5 0 1 3 0 6 0-0.1-1-0.1-2.1 0-1.3-0.1-2.7 0-1.3-0.1-2.7c0.3-2.5 0.3-2.5 1.5-4.2 2.1-1.5 4.1-2.5 6.5-3.5q1.2-0.5 2.4-1 1-0.4 1.9-0.8 0-0.5 0-1c-5.3-0.5-8 0.5-12 4zm-70-3q-0.5 1-1 2c2.4 2.9 4.2 3.5 7.9 4.1 3.6 0.6 6.7 1.5 10.1 2.9 2.7 0.2 2.7 0.2 5 0q-5.2-2.6-10.4-5.1-1.7-0.7-3.4-1.6c-2.8-1.1-5.2-1.8-8.2-2.3zm125 0c4 1 4 1 4 1zm-144 8q0.9 1.9 1.8 3.9c0.5 1.1 0.5 1.1 1 2.2 1.2 2.2 1.2 2.2 4.2 3.9 3.1-0.9 5.3-2.2 8-4q0-1 0-2-1.7-0.7-3.4-1.4c-3.6-1.6-3.6-1.6-4.6-2.6q-3.5-0.1-7 0zm56 4c-2.6 3.4-3.4 5.8-3 10 1 0.5 1 0.5 2 1q0.3-0.9 0.6-1.9 0.4-1.2 0.8-2.5 0.4-1.2 0.8-2.4c0.8-2.2 0.8-2.2 1.8-4.2q-1.5 0-3 0zm62 3q-0.7 0.7-1.4 1.5c-5.1 5.2-9.3 6.4-16.5 7-3.4 0.5-5.4 1.5-8.1 3.5q0 1 0 2c9.7 3.2 16.9 0.9 25.9-3.6 2.3-1.5 3.6-3.1 5.1-5.4q-1.5-0.5-3-1c-0.7-2.1-0.7-2.1-1-4q-0.5 0-1 0zm21.6 0.1c-2.4 0.3-2.4 0.3-5.6 1.9-1.9 2.8-2.9 5.8-4 9q-1 2-2 4c3.5-1.3 6.3-2.8 9.3-4.9 6-4 11.4-7.4 18.7-8.1-5-3.3-10.5-2.2-16.4-1.9zm-195.6 0.9q0 1 0 2 1.5-0.5 3-1-1.5-0.5-3-1zm260 12q0 0.5 0 1 3 0 6 0 0-0.5 0-1-3 0-6 0zm-57 5q0 1 0 2-0.8 0.3-1.6 0.7c-2.6 1.3-2.6 1.3-5.5 3.9-4.4 3.6-7.3 3.6-12.9 3.4-1-0.2-1-0.2-2-0.4-6.4-1.1-11.3 0.4-17.4 2.3-4.4 1.3-8.8 2.1-13.4 2.7-2.2 0.2-2.2 0.2-3.2 1.4-1.1 6.1-1.2 12.2-1.2 18.3q0 1.3 0 2.6 0 2.7 0 5.3 0 4.1 0 8.2 0 2.6 0 5.2 0 1.2-0.1 2.5c-0.1 4.4-0.1 4.4 2.3 7.9q1.1-0.6 2.3-1.2 1.4-0.8 2.9-1.7 1.5-0.8 3-1.6 1.4-0.7 2.8-1.5c0.9-0.6 0.9-0.6 1.8-1.2 3.4-1.3 6.8-1.1 10.4-1.2 6-0.2 10.5-0.9 16-3.7 3.2-1.6 5.3-1.5 8.8-0.9 2.8 1.4 5.5 2.9 8.3 4.4 5.2 2.5 11.1 3.5 16.8 4.5 6.3 1.3 6.3 1.3 8.1 3.8q0.4 0.9 0.9 1.9c1.5 3.4 1.5 3.4 3.7 4.2 2.2 0.5 4.3 0.7 6.6 0.9 5.5 0.7 9.6 1.6 14.6 4.3 6.1 1.7 11.9 3.1 17.7 0.2 3-1.9 3-1.9 4.3-3.2q0.2-3.9 0.3-7.8c0-1.3 0-1.3 0.1-2.5q0-2.6 0.1-5.1 0.1-3.9 0.2-7.7 0.3-12 0.4-24 0-1.9 0-3.9c0.1-2.9 0.1-2.9-1.1-5-3-0.7-3-0.7-6-1q-0.3 0.9-0.5 1.8c-1.7 5.4-3.2 10.2-8.3 13.3-2.4 1-4.1 1.2-6.7 1.1q-1.1 0.1-2.3 0.1c-2.5-0.3-4.1-0.8-6.2-2.3-0.8-2.7-0.8-5.2-1-8q0.9-0.3 1.9-0.6c1.2-0.3 1.2-0.3 2.5-0.7q1.2-0.4 2.4-0.8c2.5-0.8 2.5-0.8 4.2-3.9q0-1.5 0-3c-3.7 0.6-6.5 1.7-9.8 3.5-8.4 4.2-8.4 4.2-13.2 3.5-9.6-3.8-9.6-3.8-12.3-8-0.9-2.7-0.5-4.3 0.3-7q1-1.5 2-3c-6.4-4.5-13.8-7.8-21-3zm-8 68c-1.2 4.6-1 9-0.9 13.8q0.1 1.2 0.1 2.5 0.1 4 0.2 8 0.1 2.7 0.2 5.4 0.2 6.7 0.4 13.3 0.5 0 1 0c0-14.2 0-28.4 0-43q-0.5 0-1 0zm-11 2c-1.4 1.2-1.4 1.2-1.1 4.8q0 2.5 0 5 0 1.4 0 2.7 0 4.3 0 8.6 0 2.8 0.1 5.7 0 7.1 0 14.2 1 0 2 0c0-13.5 0-27.1 0-41q-0.5 0-1 0zm-9 1c-1.3 4-1.1 7.9-1.1 12q0 1.2 0 2.4 0 3.7 0 7.3 0 2.6 0.1 5.1 0 6.1 0 12.2 1 0.5 2 1c0-13.2 0-26.4 0-40q-0.5 0-1 0zm30 0c-1 7.7-1 15.1-0.6 22.9q0 1.6 0.1 3.4c0.2 6.4 0.2 6.4 1.5 12.7 2.5-3.8 2.3-7.5 2.2-11.8q0-1.1 0-2.3 0-3.6-0.1-7.1 0-2.5 0-4.9 0-6-0.1-11.9-1.5-0.5-3-1zm-42 2c0 12.5 0 25.1 0 38q0.5 0 1 0c0-12.5 0-25.1 0-38q-0.5 0-1 0zm52 2c0 11.9 0 23.8 0 36q0.5 0 1 0c0-11.9 0-23.8 0-36q-0.5 0-1 0zm-156 9c0 8.6 0 17.2 0 26q0.5 0 1 0c0-8.6 0-17.2 0-26q-0.5 0-1 0zm20 0c0 8.9 0 17.8 0 27q0.5 0 1 0c0-8.9 0-17.8 0-27q-0.5 0-1 0zm232 0c0 8.3 0 16.5 0 25q0.5 0 1 0c0-8.2 0-16.5 0-25q-0.5 0-1 0zm-168 1c0 8.6 0 17.2 0 26q0.5 0 1 0c0-8.6 0-17.2 0-26q-0.5 0-1 0zm-126 2c1 2 1 2 1 2zm22 0c0 7.6 0 15.2 0 23q0.5 0 1 0c0-7.6 0-15.2 0-23q-0.5 0-1 0zm252 0c0 7.9 0 15.8 0 24q0.5 0 1 0c0-7.9 0-15.8 0-24q-0.5 0-1 0zm8 0c0 7.3 0 14.5 0 22q0.5 0 1 0c0.3-7.3 0.7-14.5 1-22q-1 0-2 0zm-272 1c0 7.6 0 15.2 0 23q0.5 0 1 0c0-7.6 0-15.2 0-23q-0.5 0-1 0zm20 0c0 7.6 0 15.2 0 23q0.5 0 1 0c0-7.6 0-15.2 0-23q-0.5 0-1 0zm44 0c-1 7.7-1.1 15.3-1 23q1-0.5 2-1c0-7.3 0-14.5 0-22q-0.5 0-1 0zm188 1q0 3 0 6 0.5 0 1 0 0-3 0-6-0.5 0-1 0zm-179 2c-1.2 1-1.2 1-1.1 2.9q0 1.1 0 2.4 0 1.2 0 2.5 0 1.4 0 2.8 0 1.3 0.1 2.7 0 3.3 0 6.7 1 0 2 0c0-6.6 0-13.2 0-20q-0.5 0-1 0zm11 1c0 6.9 0 13.9 0 21q0.5 0 1 0c0-6.9 0-13.9 0-21q-0.5 0-1 0zm136 0c0 2.6 0 5.3 0 8q0.5 0 1 0c0-2.6 0-5.3 0-8q-0.5 0-1 0zm12 0c0 6.3 0 12.5 0 19q0.5 0 1 0c0-6.3 0-12.5 0-19q-0.5 0-1 0zm-32 3c0 5.3 0 10.6 0 16q0.5 0 1 0c0-5.3 0-10.6 0-16q-0.5 0-1 0zm-96 4c0 4 0 7.9 0 12q0.5 0 1 0c0-4 0-7.9 0-12q-0.5 0-1 0zm148 0c1 4 1 4 1 4zm52 4c0 2.3 0 4.6 0 7q1-1 2-2c-0.3-2.6-0.3-2.6-1-5q-0.5 0-1 0zm-84 1c0 2.3 0 4.6 0 7q0.5 0 1 0c0-2.3 0-4.6 0-7q-0.5 0-1 0zm96 0q0 3 0 6 0.5 0 1 0 0-3 0-6-0.5 0-1 0zm-64 3c1 4 1 4 1 4z"/><path class="a" d="m49 174c0.5 6.1-0.9 9.4-4 14.4-0.6 1-0.6 1-1.2 2q-1.4 2.3-2.8 4.6c3.1 3.3 5.9 5.1 10 7 2 2 2 2 2.1 4-0.5 5.1-1.2 8.3-5.1 12-3.4 2.2-6.2 2.2-10.3 2.1q-1.6 0-3.2 0-1.2-0.1-2.5-0.1c-1.3-2.6-1.1-4.7-1.1-7.6q0.1-1.5 0.1-3.1 0-1.1 0-2.3c-10.4-0.7-18.4 2.8-27.2 8-1.8 1-1.8 1-3.8 1 0-4.9 0-9.9 0-15 9.9-5.8 17.4-8.6 29-8q0.1-1.8 0.2-3.6c0.6-4.4 1.8-7 4.8-10.4 4.8-3.4 9-5.8 15-5z"/></svg>